<svg width="603" height="500" viewBox="0 0 603 500" fill="none" xmlns="http://www.w3.org/2000/svg">
<path d="M392 494.605C394.6 497.882 394.683 499.605 390.5 499.605H212C210.484 499.605 199.949 497.788 199 496.605L3.60027 252.629C2.88813 251.742 0 245.243 0 244.105V10.6052C0 5.8686 4.05615 5.89452 7 9.60519L392 494.605Z" fill="#F5A623"/>
<path d="M594 10.6052C596.945 6.89631 602.5 7.36951 602.5 12.1052V240.105C602.5 241.222 598.189 250.225 597.5 251.105L539.5 324.605C538.552 325.816 529.038 332.105 527.5 332.105H344.5C340.316 332.105 341.899 328.882 344.5 325.605L594 10.6052Z" fill="#F5A623"/>
<path d="M289.122 14.5439C290.286 10.4275 297.079 10.3345 298.354 14.4179C303.422 30.6466 312.143 53.8943 323 64.1052C333.816 74.2777 356.627 82.7435 372.523 87.7383C376.593 89.0173 376.477 95.734 372.367 96.8812C356.488 101.314 333.805 109.01 323 119.105C312.246 129.153 303.542 153.028 298.446 169.868C297.194 174.006 290.251 173.898 289.121 169.725C284.562 152.888 276.603 129.111 266 119.105C255.199 108.912 232.187 101.416 215.49 97.0466C211.26 95.9398 211.145 88.7902 215.34 87.5594C232.049 82.6578 255.164 74.4486 266 64.1052C276.475 54.1069 284.514 30.8378 289.122 14.5439Z" fill="#F5A623"/>
<path d="M362.429 1.63275C363.034 -0.616992 367.418 -0.510896 367.938 1.75997C368.922 6.05818 370.204 10.1603 371.783 12.2114C373.822 14.8612 380.366 17.3193 386.5 19.1354C388.685 19.7822 388.524 23.8269 386.297 24.3135C380.224 25.6409 373.804 27.602 371.783 30.2114C370.245 32.1961 368.985 36.4411 368.01 40.9899C367.514 43.2989 362.947 43.3956 362.371 41.1052C361.218 36.5115 359.816 32.2105 358.283 30.2114C356.294 27.6186 350.405 25.7051 344.682 24.4008C342.449 23.8919 342.28 19.6801 344.47 19.0109C350.259 17.2423 356.269 14.8669 358.283 12.2114C359.827 10.1743 361.256 5.99814 362.429 1.63275Z" fill="#F5A623"/>
</svg>
